<?xml version="1.0" encoding="iso-8859-1"?>
<!-- Generator: Adobe Illustrator 19.0.0, SVG Export Plug-In . SVG Version: 6.00 Build 0)  -->
<svg version="1.1" id="Capa_1" xmlns="http://www.w3.org/2000/svg" xmlns:xlink="http://www.w3.org/1999/xlink" x="0px" y="0px"
	 viewBox="0 0 465 465" style="enable-background:new 0 0 465 465;" xml:space="preserve">
<g>
	<polygon style="fill:#77AAD4;" points="222.5,252.5 222.5,322.5 262.5,312.5 262.5,252.5 	"/>
	<polygon style="fill:#A5C6E3;" points="202.5,252.5 202.5,312.5 232.5,322.5 232.5,252.5 	"/>
	<polygon style="fill:#4A8DC6;" points="232.5,312.5 222.5,352.5 252.5,342.5 262.5,312.5 	"/>
	<polygon style="fill:#77AAD4;" points="202.5,312.5 212.5,342.5 232.5,352.5 232.5,312.5 	"/>
	<polygon style="fill:#4A8DC6;" points="107.5,217.5 87.5,232.5 107.5,247.5 437.5,247.5 437.5,217.5 	"/>
	<rect x="212.5" y="142.5" style="fill:#A5C6E3;" width="40" height="80"/>
	<path style="fill:#A5C6E3;" d="M312.5,202.5h-30v60h30c8.25,0,15-6.75,15-15v-30C327.5,209.25,320.75,202.5,312.5,202.5z"/>
	<polygon style="fill:#0E3759;" points="287.5,342.5 287.5,372.5 257.5,372.5 237.5,357.5 257.5,342.5 	"/>
	<polygon style="fill:#0E3759;" points="287.5,122.5 287.5,152.5 257.5,152.5 237.5,137.5 257.5,122.5 	"/>
	<rect x="177.5" y="342.5" style="fill:#185E98;" width="80" height="30"/>
	<rect x="177.5" y="122.5" style="fill:#185E98;" width="80" height="30"/>
	<rect x="7.5" y="37.5" style="fill:#185E98;" width="40" height="150"/>
	<rect x="7.5" y="277.5" style="fill:#185E98;" width="40" height="150"/>
	<rect x="347.5" y="277.5" style="fill:#185E98;" width="40" height="150"/>
	<rect x="347.5" y="37.5" style="fill:#185E98;" width="40" height="150"/>
	<rect x="77.5" y="277.5" style="fill:#0E3759;" width="40" height="150"/>
	<rect x="77.5" y="37.5" style="fill:#0E3759;" width="40" height="150"/>
	<rect x="417.5" y="277.5" style="fill:#0E3759;" width="40" height="150"/>
	<rect x="417.5" y="37.5" style="fill:#0E3759;" width="40" height="150"/>
	<path style="fill:#D2E3F1;" d="M282.5,202.5h-130c-8.25,0-15,6.75-15,15v30c0,8.25,6.75,15,15,15h130c8.25,0,15-6.75,15-15v-30
		C297.5,209.25,290.75,202.5,282.5,202.5z"/>
	<rect x="27.5" y="217.5" style="fill:#77AAD4;" width="80" height="30"/>
	<circle cx="297.5" cy="232.5" r="7.5"/>
	<path d="M445,195h12.5c4.142,0,7.5-3.357,7.5-7.5v-150c0-4.143-3.358-7.5-7.5-7.5h-110c-4.142,0-7.5,3.357-7.5,7.5v150
		c0,4.143,3.358,7.5,7.5,7.5H360v15h-26.29c-3.096-8.729-11.432-15-21.21-15H260v-35h27.5c4.142,0,7.5-3.357,7.5-7.5v-30
		c0-4.143-3.358-7.5-7.5-7.5h-110c-4.142,0-7.5,3.357-7.5,7.5v30c0,4.143,3.358,7.5,7.5,7.5H205v35h-52.5
		c-9.777,0-18.114,6.271-21.21,15H105v-15h12.5c4.142,0,7.5-3.357,7.5-7.5v-150c0-4.143-3.358-7.5-7.5-7.5H7.5
		C3.358,30,0,33.357,0,37.5v150c0,4.143,3.358,7.5,7.5,7.5H20v75H7.5c-4.142,0-7.5,3.357-7.5,7.5v150c0,4.143,3.358,7.5,7.5,7.5h110
		c4.142,0,7.5-3.357,7.5-7.5v-150c0-4.143-3.358-7.5-7.5-7.5H105v-15h26.29c3.096,8.729,11.432,15,21.21,15H195v42.5
		c0,0.37,0.036,0.731,0.088,1.087c0.01,0.068,0.019,0.135,0.031,0.202c0.062,0.358,0.146,0.708,0.257,1.047
		c0.009,0.036,6.718,20.164,6.718,20.164H177.5c-4.142,0-7.5,3.357-7.5,7.5v30c0,4.143,3.358,7.5,7.5,7.5h110
		c4.142,0,7.5-3.357,7.5-7.5v-30c0-4.143-3.358-7.5-7.5-7.5h-24.594l6.709-20.128c0.12-0.375,0.204-0.725,0.266-1.083
		c0.012-0.067,0.021-0.134,0.031-0.202c0.052-0.356,0.088-0.717,0.088-1.087V270h42.5c9.777,0,18.114-6.271,21.21-15H360v15h-12.5
		c-4.142,0-7.5,3.357-7.5,7.5v150c0,4.143,3.358,7.5,7.5,7.5h110c4.142,0,7.5-3.357,7.5-7.5v-150c0-4.143-3.358-7.5-7.5-7.5H445V195
		z M335,240v-15h95v15H335z M450,180h-25V45h25V180z M355,45h25v22.5c0,4.143,3.358,7.5,7.5,7.5s7.5-3.357,7.5-7.5V45h15v135h-15
		V97.5c0-4.143-3.358-7.5-7.5-7.5s-7.5,3.357-7.5,7.5V180h-25V45z M375,195h55v15h-55V195z M185,130h95v15h-95V130z M220,160h25v35
		h-25V160z M35,240v-15h95v15H35z M110,180H85V45h25V180z M55,180V45h15v135H55z M15,45h25v135H15V45z M90,195v15H35v-15H90z
		 M15,285h25v135H15V285z M70,285v135H55V285H70z M110,420H85V285h25V420z M90,270H35v-15h55V270z M280,365h-95v-15h95V365z
		 M217.906,335l-5-15h39.189l-5,15H217.906z M312.5,255h-65c-4.142,0-7.5,3.357-7.5,7.5s3.358,7.5,7.5,7.5h7.5v35h-45v-35h7.5
		c4.142,0,7.5-3.357,7.5-7.5s-3.358-7.5-7.5-7.5h-65c-4.136,0-7.5-3.364-7.5-7.5v-30c0-4.136,3.364-7.5,7.5-7.5h160
		c4.136,0,7.5,3.364,7.5,7.5v30C320,251.636,316.636,255,312.5,255z M355,285h25v135h-25V285z M410,285v135h-15V285H410z M450,420
		h-25V285h25V420z M375,270v-15h55v15H375z"/>
</g>
<g>
</g>
<g>
</g>
<g>
</g>
<g>
</g>
<g>
</g>
<g>
</g>
<g>
</g>
<g>
</g>
<g>
</g>
<g>
</g>
<g>
</g>
<g>
</g>
<g>
</g>
<g>
</g>
<g>
</g>
</svg>
